<?xml version="1.0" standalone="no"?>
<!DOCTYPE svg PUBLIC "-//W3C//DTD SVG 20010904//EN"
 "http://www.w3.org/TR/2001/REC-SVG-20010904/DTD/svg10.dtd">
<svg version="1.0" xmlns="http://www.w3.org/2000/svg"
 width="554.000000pt" height="554.000000pt" viewBox="0 0 554.000000 554.000000"
 preserveAspectRatio="xMidYMid meet">
<metadata>
Created by potrace 1.14, written by Peter Selinger 2001-2017
</metadata>
<g transform="translate(0.000000,554.000000) scale(0.100000,-0.100000)"
fill="#000000" stroke="none">
<path d="M5193 5448 c-23 -24 -193 -191 -378 -373 -186 -181 -493 -483 -682
-670 -323 -319 -878 -865 -878 -865 -1 0 -91 -88 -200 -196 -110 -108 -361
-354 -558 -547 -197 -194 -386 -380 -420 -413 l-62 -62 -846 0 c-466 1 -851
-2 -855 -5 -5 -3 -9 -254 -9 -559 l0 -553 575 -1 575 -2 110 109 c61 59 164
160 230 225 162 158 971 954 1265 1244 131 129 399 393 596 587 719 705 843
828 853 853 6 14 15 32 21 40 31 47 190 323 190 330 0 5 6 13 13 17 6 4 23 30
37 57 14 28 36 68 51 90 26 42 135 224 155 261 12 23 69 120 87 150 7 11 27
43 45 72 17 30 32 58 32 63 0 6 4 10 8 10 4 0 13 12 19 28 15 34 35 65 48 74
6 4 6 8 2 8 -5 0 1 12 12 26 12 15 21 31 21 35 0 18 -18 8 -57 -33z"/>
<path d="M5204 4427 c-27 -27 -155 -149 -345 -327 -26 -25 -103 -97 -171 -161
-68 -64 -141 -133 -163 -153 -37 -35 -262 -248 -345 -326 -20 -19 -87 -82
-149 -140 -62 -58 -134 -125 -160 -150 -54 -51 -276 -260 -336 -316 -22 -20
-98 -92 -170 -159 -71 -68 -146 -137 -165 -155 -19 -18 -92 -86 -161 -151 -70
-66 -144 -136 -165 -156 -45 -42 -282 -265 -359 -338 -117 -110 -312 -294
-340 -320 -16 -15 -88 -82 -160 -150 -71 -67 -148 -139 -170 -160 -22 -20 -95
-89 -161 -151 -67 -63 -135 -126 -150 -139 l-29 -25 -597 0 c-471 0 -598 -3
-599 -12 -4 -55 -1 -880 3 -884 4 -3 1898 -7 2403 -4 l50 0 -2 767 -1 767 31
29 c18 16 85 79 151 141 65 61 135 127 156 146 39 37 297 280 360 340 249 235
322 304 339 319 10 9 82 76 158 148 76 72 154 145 173 163 19 18 93 87 164
154 70 66 141 132 156 146 15 14 42 50 61 80 18 30 35 57 39 60 3 3 12 18 20
35 8 16 36 62 63 102 26 40 47 76 47 81 0 4 9 18 20 30 11 12 25 32 30 44 5
13 29 53 52 90 39 61 264 424 313 504 11 18 50 83 88 143 37 61 67 113 67 116
0 12 -17 2 -46 -28z"/>
<path d="M1487 4254 c-1 -1 -20 -5 -42 -8 -23 -4 -52 -9 -65 -11 -14 -3 -38
-8 -55 -10 -16 -3 -50 -12 -75 -20 -25 -8 -47 -15 -50 -14 -8 1 -108 -39 -169
-67 -94 -44 -284 -171 -346 -231 -61 -59 -205 -243 -205 -261 0 -6 -3 -12 -7
-14 -30 -13 -109 -224 -144 -385 -19 -86 -22 -132 -23 -368 -1 -148 0 -277 2
-286 3 -14 77 -16 755 -16 432 0 760 4 770 9 17 9 101 83 159 141 15 15 29 27
31 27 2 0 22 17 43 38 22 20 75 69 118 107 43 39 100 90 127 115 27 25 74 68
104 95 31 28 71 64 89 80 18 17 53 48 77 70 24 22 94 85 154 140 60 55 129
118 154 140 24 22 58 54 76 70 18 17 61 56 97 87 35 31 80 71 99 90 20 18 73
67 119 108 45 41 95 86 110 100 15 14 62 57 105 95 43 39 101 91 129 117 28
26 54 48 59 48 4 0 7 4 7 8 0 8 -2195 13 -2203 6z"/>
<path d="M5124 3452 c-142 -137 -479 -461 -553 -531 -196 -186 -406 -388 -482
-461 -48 -47 -158 -153 -246 -237 -87 -83 -196 -188 -243 -233 -47 -45 -163
-157 -259 -248 -95 -92 -198 -190 -227 -219 l-54 -52 0 -710 c0 -562 3 -711
13 -711 127 -5 526 3 535 10 1 2 5 3 10 4 9 2 70 15 101 21 150 29 286 81 419
159 145 86 239 167 317 276 22 30 43 57 47 58 5 2 8 10 8 17 0 8 6 20 13 27
43 44 148 299 163 396 3 19 8 44 12 56 3 11 8 373 9 804 l4 783 66 107 c87
140 134 220 133 227 0 3 9 15 20 27 11 12 20 28 20 35 0 7 5 13 10 13 6 0 10
5 10 10 0 6 27 53 60 106 33 52 60 97 60 99 0 2 27 47 60 100 33 53 60 99 60
102 0 2 9 16 20 30 21 27 26 43 13 43 -5 0 -58 -49 -119 -108z"/>
</g>
</svg>
